<svg viewBox="-87.1 -140.8 118.2 35.4" preserveAspectRatio="xMidYMid meet" xmlns="http://www.w3.org/2000/svg">
<line x1="0.0" y1="0.0" x2="0.0" y2="-5.0" stroke-width="1" stroke="black"/>
<line x1="0.0" y1="-5.0" x2="0.0" y2="-10.0" stroke-width="1" stroke="black"/>
<line x1="0.0" y1="-10.0" x2="0.0" y2="-15.0" stroke-width="1" stroke="black"/>
<line x1="0.0" y1="-15.0" x2="0.0" y2="-20.0" stroke-width="1" stroke="black"/>
<line x1="0.0" y1="-20.0" x2="2.1" y2="-24.5" stroke-width="1" stroke="black"/>
<line x1="2.1" y1="-24.5" x2="4.2" y2="-29.1" stroke-width="1" stroke="black"/>
<line x1="4.2" y1="-29.1" x2="8.1" y2="-32.3" stroke-width="1" stroke="black"/>
<line x1="8.1" y1="-32.3" x2="11.9" y2="-35.5" stroke-width="1" stroke="black"/>
<line x1="11.9" y1="-35.5" x2="14.0" y2="-40.0" stroke-width="1" stroke="black"/>
<line x1="4.2" y1="-29.1" x2="6.3" y2="-33.6" stroke-width="1" stroke="black"/>
<line x1="6.3" y1="-33.6" x2="8.5" y2="-38.1" stroke-width="1" stroke="black"/>
<line x1="8.5" y1="-38.1" x2="8.5" y2="-43.1" stroke-width="1" stroke="black"/>
<line x1="4.2" y1="-29.1" x2="6.3" y2="-33.6" stroke-width="1" stroke="black"/>
<line x1="6.3" y1="-33.6" x2="8.5" y2="-38.1" stroke-width="1" stroke="black"/>
<line x1="8.5" y1="-38.1" x2="8.5" y2="-43.1" stroke-width="1" stroke="black"/>
<line x1="8.5" y1="-43.1" x2="8.5" y2="-48.1" stroke-width="1" stroke="black"/>
<line x1="8.5" y1="-48.1" x2="8.5" y2="-53.1" stroke-width="1" stroke="black"/>
<line x1="8.5" y1="-53.1" x2="8.5" y2="-58.1" stroke-width="1" stroke="black"/>
<line x1="8.5" y1="-58.1" x2="6.3" y2="-62.7" stroke-width="1" stroke="black"/>
<line x1="8.5" y1="-38.1" x2="12.3" y2="-41.3" stroke-width="1" stroke="black"/>
<line x1="12.3" y1="-41.3" x2="16.1" y2="-44.6" stroke-width="1" stroke="black"/>
<line x1="16.1" y1="-44.6" x2="18.2" y2="-49.1" stroke-width="1" stroke="black"/>
<line x1="0.0" y1="-20.0" x2="0.0" y2="-25.0" stroke-width="1" stroke="black"/>
<line x1="0.0" y1="-25.0" x2="0.0" y2="-30.0" stroke-width="1" stroke="black"/>
<line x1="0.0" y1="-30.0" x2="2.1" y2="-34.5" stroke-width="1" stroke="black"/>
<line x1="2.1" y1="-34.5" x2="4.2" y2="-39.1" stroke-width="1" stroke="black"/>
<line x1="4.2" y1="-39.1" x2="4.2" y2="-44.1" stroke-width="1" stroke="black"/>
<line x1="0.0" y1="-30.0" x2="0.0" y2="-35.0" stroke-width="1" stroke="black"/>
<line x1="0.0" y1="-35.0" x2="0.0" y2="-40.0" stroke-width="1" stroke="black"/>
<line x1="0.0" y1="-40.0" x2="-2.1" y2="-44.5" stroke-width="1" stroke="black"/>
<line x1="0.0" y1="-30.0" x2="0.0" y2="-35.0" stroke-width="1" stroke="black"/>
<line x1="0.0" y1="-35.0" x2="0.0" y2="-40.0" stroke-width="1" stroke="black"/>
<line x1="0.0" y1="-40.0" x2="-2.1" y2="-44.5" stroke-width="1" stroke="black"/>
<line x1="-2.1" y1="-44.5" x2="-4.2" y2="-49.1" stroke-width="1" stroke="black"/>
<line x1="-4.2" y1="-49.1" x2="-6.3" y2="-53.6" stroke-width="1" stroke="black"/>
<line x1="-6.3" y1="-53.6" x2="-8.5" y2="-58.1" stroke-width="1" stroke="black"/>
<line x1="-8.5" y1="-58.1" x2="-12.3" y2="-61.3" stroke-width="1" stroke="black"/>
<line x1="0.0" y1="-40.0" x2="2.1" y2="-44.5" stroke-width="1" stroke="black"/>
<line x1="2.1" y1="-44.5" x2="4.2" y2="-49.1" stroke-width="1" stroke="black"/>
<line x1="4.2" y1="-49.1" x2="4.2" y2="-54.1" stroke-width="1" stroke="black"/>
<line x1="0.0" y1="-20.0" x2="0.0" y2="-25.0" stroke-width="1" stroke="black"/>
<line x1="0.0" y1="-25.0" x2="0.0" y2="-30.0" stroke-width="1" stroke="black"/>
<line x1="0.0" y1="-30.0" x2="0.0" y2="-35.0" stroke-width="1" stroke="black"/>
<line x1="0.0" y1="-35.0" x2="0.0" y2="-40.0" stroke-width="1" stroke="black"/>
<line x1="0.0" y1="-40.0" x2="-2.1" y2="-44.5" stroke-width="1" stroke="black"/>
<line x1="-2.1" y1="-44.5" x2="-4.2" y2="-49.1" stroke-width="1" stroke="black"/>
<line x1="-4.2" y1="-49.1" x2="-6.3" y2="-53.6" stroke-width="1" stroke="black"/>
<line x1="-6.3" y1="-53.6" x2="-8.5" y2="-58.1" stroke-width="1" stroke="black"/>
<line x1="-8.5" y1="-58.1" x2="-10.6" y2="-62.7" stroke-width="1" stroke="black"/>
<line x1="-10.6" y1="-62.7" x2="-12.7" y2="-67.2" stroke-width="1" stroke="black"/>
<line x1="-12.7" y1="-67.2" x2="-12.7" y2="-72.2" stroke-width="1" stroke="black"/>
<line x1="-12.7" y1="-72.2" x2="-12.7" y2="-77.2" stroke-width="1" stroke="black"/>
<line x1="-12.7" y1="-77.2" x2="-14.8" y2="-81.7" stroke-width="1" stroke="black"/>
<line x1="-12.7" y1="-67.2" x2="-14.8" y2="-71.7" stroke-width="1" stroke="black"/>
<line x1="-14.8" y1="-71.7" x2="-16.9" y2="-76.3" stroke-width="1" stroke="black"/>
<line x1="-16.9" y1="-76.3" x2="-20.7" y2="-79.5" stroke-width="1" stroke="black"/>
<line x1="-12.7" y1="-67.2" x2="-14.8" y2="-71.7" stroke-width="1" stroke="black"/>
<line x1="-14.8" y1="-71.7" x2="-16.9" y2="-76.3" stroke-width="1" stroke="black"/>
<line x1="-16.9" y1="-76.3" x2="-20.7" y2="-79.5" stroke-width="1" stroke="black"/>
<line x1="-20.7" y1="-79.5" x2="-24.6" y2="-82.7" stroke-width="1" stroke="black"/>
<line x1="-24.6" y1="-82.7" x2="-28.4" y2="-85.9" stroke-width="1" stroke="black"/>
<line x1="-28.4" y1="-85.9" x2="-32.2" y2="-89.1" stroke-width="1" stroke="black"/>
<line x1="-32.2" y1="-89.1" x2="-37.1" y2="-90.4" stroke-width="1" stroke="black"/>
<line x1="-16.9" y1="-76.3" x2="-16.9" y2="-81.3" stroke-width="1" stroke="black"/>
<line x1="-16.9" y1="-81.3" x2="-16.9" y2="-86.3" stroke-width="1" stroke="black"/>
<line x1="-16.9" y1="-86.3" x2="-19.0" y2="-90.8" stroke-width="1" stroke="black"/>
<line x1="0.0" y1="-40.0" x2="2.1" y2="-44.5" stroke-width="1" stroke="black"/>
<line x1="2.1" y1="-44.5" x2="4.2" y2="-49.1" stroke-width="1" stroke="black"/>
<line x1="4.2" y1="-49.1" x2="8.1" y2="-52.3" stroke-width="1" stroke="black"/>
<line x1="8.1" y1="-52.3" x2="11.9" y2="-55.5" stroke-width="1" stroke="black"/>
<line x1="11.9" y1="-55.5" x2="14.0" y2="-60.0" stroke-width="1" stroke="black"/>
<line x1="4.2" y1="-49.1" x2="6.3" y2="-53.6" stroke-width="1" stroke="black"/>
<line x1="6.3" y1="-53.6" x2="8.5" y2="-58.1" stroke-width="1" stroke="black"/>
<line x1="8.5" y1="-58.1" x2="8.5" y2="-63.1" stroke-width="1" stroke="black"/>
<line x1="4.2" y1="-49.1" x2="6.3" y2="-53.6" stroke-width="1" stroke="black"/>
<line x1="6.3" y1="-53.6" x2="8.5" y2="-58.1" stroke-width="1" stroke="black"/>
<line x1="8.5" y1="-58.1" x2="8.5" y2="-63.1" stroke-width="1" stroke="black"/>
<line x1="8.5" y1="-63.1" x2="8.5" y2="-68.1" stroke-width="1" stroke="black"/>
<line x1="8.5" y1="-68.1" x2="8.5" y2="-73.1" stroke-width="1" stroke="black"/>
<line x1="8.5" y1="-73.1" x2="8.5" y2="-78.1" stroke-width="1" stroke="black"/>
<line x1="8.5" y1="-78.1" x2="6.3" y2="-82.7" stroke-width="1" stroke="black"/>
<line x1="8.5" y1="-58.1" x2="12.3" y2="-61.3" stroke-width="1" stroke="black"/>
<line x1="12.3" y1="-61.3" x2="16.1" y2="-64.6" stroke-width="1" stroke="black"/>
<line x1="16.1" y1="-64.6" x2="18.2" y2="-69.1" stroke-width="1" stroke="black"/>
</svg>