<svg viewBox="-900 -900 1500 1500" preserveAspectRatio="xMidYMid meet" xmlns="http://www.w3.org/2000/svg">
<path d="M 0.00 0.00 L 0.00 -5.00 L -4.33 -2.50 L -4.33 -7.50 L 0.00 -5.00 L 0.00 -10.00 L -4.33 -7.50 L -8.66 -5.00 L -8.66 -10.00 L -12.99 -7.50 L -12.99 -12.50 L -8.66 -10.00 L -8.66 -15.00 L -4.33 -12.50 L 0.00 -10.00 L 0.00 -15.00 L -4.33 -12.50 L -4.33 -17.50 L 0.00 -15.00 L 0.00 -20.00 L -4.33 -17.50 L -8.66 -15.00 L -12.99 -12.50 L -17.32 -10.00 L -17.32 -15.00 L -21.65 -12.50 L -21.65 -17.50 L -17.32 -15.00 L -17.32 -20.00 L -21.65 -17.50 L -25.98 -15.00 L -25.98 -20.00 L -30.31 -17.50 L -30.31 -22.50 L -25.98 -20.00 L -25.98 -25.00 L -21.65 -22.50 L -17.32 -20.00 L -17.32 -25.00 L -21.65 -22.50 L -21.65 -27.50 L -17.32 -25.00 L -17.32 -30.00 L -12.99 -27.50 L -8.66 -25.00 L -4.33 -22.50 L 0.00 -20.00 L 0.00 -25.00 L -4.33 -22.50 L -4.33 -27.50 L 0.00 -25.00 L 0.00 -30.00 L -4.33 -27.50 L -8.66 -25.00 L -8.66 -30.00 L -12.99 -27.50 L -12.99 -32.50 L -8.66 -30.00 L -8.66 -35.00 L -4.33 -32.50 L 0.00 -30.00 L 0.00 -35.00 L -4.33 -32.50 L -4.33 -37.50 L 0.00 -35.00 L 0.00 -40.00 L -4.33 -37.50 L -8.66 -35.00 L -12.99 -32.50 L -17.32 -30.00 L -21.65 -27.50 L -25.98 -25.00 L -30.31 -22.50 L -34.64 -20.00 L -34.64 -25.00 L -38.97 -22.50 L -38.97 -27.50 L -34.64 -25.00 L -34.64 -30.00 L -38.97 -27.50 L -43.30 -25.00 L -43.30 -30.00 L -47.63 -27.50 L -47.63 -32.50 L -43.30 -30.00 L -43.30 -35.00 L -38.97 -32.50 L -34.64 -30.00 L -34.64 -35.00 L -38.97 -32.50 L -38.97 -37.50 L -34.64 -35.00 L -34.64 -40.00 L -38.97 -37.50 L -43.30 -35.00 L -47.63 -32.50 L -51.96 -30.00 L -51.96 -35.00 L -56.29 -32.50 L -56.29 -37.50 L -51.96 -35.00 L -51.96 -40.00 L -56.29 -37.50 L -60.62 -35.00 L -60.62 -40.00 L -64.95 -37.50 L -64.95 -42.50 L -60.62 -40.00 L -60.62 -45.00 L -56.29 -42.50 L -51.96 -40.00 L -51.96 -45.00 L -56.29 -42.50 L -56.29 -47.50 L -51.96 -45.00 L -51.96 -50.00 L -47.63 -47.50 L -43.30 -45.00 L -38.97 -42.50 L -34.64 -40.00 L -34.64 -45.00 L -38.97 -42.50 L -38.97 -47.50 L -34.64 -45.00 L -34.64 -50.00 L -38.97 -47.50 L -43.30 -45.00 L -43.30 -50.00 L -47.63 -47.50 L -47.63 -52.50 L -43.30 -50.00 L -43.30 -55.00 L -38.97 -52.50 L -34.64 -50.00 L -34.64 -55.00 L -38.97 -52.50 L -38.97 -57.50 L -34.64 -55.00 L -34.64 -60.00 L -30.31 -57.50 L -25.98 -55.00 L -21.65 -52.50 L -17.32 -50.00 L -12.99 -47.50 L -8.66 -45.00 L -4.33 -42.50 L 0.00 -40.00 L 0.00 -45.00 L -4.33 -42.50 L -4.33 -47.50 L 0.00 -45.00 L 0.00 -50.00 L -4.33 -47.50 L -8.66 -45.00 L -8.66 -50.00 L -12.99 -47.50 L -12.99 -52.50 L -8.66 -50.00 L -8.66 -55.00 L -4.33 -52.50 L 0.00 -50.00 L 0.00 -55.00 L -4.33 -52.50 L -4.33 -57.50 L 0.00 -55.00 L 0.00 -60.00 L -4.33 -57.50 L -8.66 -55.00 L -12.99 -52.50 L -17.32 -50.00 L -17.32 -55.00 L -21.65 -52.50 L -21.65 -57.50 L -17.32 -55.00 L -17.32 -60.00 L -21.65 -57.50 L -25.98 -55.00 L -25.98 -60.00 L -30.31 -57.50 L -30.31 -62.50 L -25.98 -60.00 L -25.98 -65.00 L -21.65 -62.50 L -17.32 -60.00 L -17.32 -65.00 L -21.65 -62.50 L -21.65 -67.50 L -17.32 -65.00 L -17.32 -70.00 L -12.99 -67.50 L -8.66 -65.00 L -4.33 -62.50 L 0.00 -60.00 L 0.00 -65.00 L -4.33 -62.50 L -4.33 -67.50 L 0.00 -65.00 L 0.00 -70.00 L -4.33 -67.50 L -8.66 -65.00 L -8.66 -70.00 L -12.99 -67.50 L -12.99 -72.50 L -8.66 -70.00 L -8.66 -75.00 L -4.33 -72.50 L 0.00 -70.00 L 0.00 -75.00 L -4.33 -72.50 L -4.33 -77.50 L 0.00 -75.00 L 0.00 -80.00 L -4.33 -77.50 L -8.66 -75.00 L -12.99 -72.50 L -17.32 -70.00 L -21.65 -67.50 L -25.98 -65.00 L -30.31 -62.50 L -34.64 -60.00 L -38.97 -57.50 L -43.30 -55.00 L -47.63 -52.50 L -51.96 -50.00 L -56.29 -47.50 L -60.62 -45.00 L -64.95 -42.50 L -69.28 -40.00 L -64.95 -37.50 L -60.62 -35.00 L -56.29 -32.50 L -51.96 -30.00 L -47.63 -27.50 L -43.30 -25.00 L -38.97 -22.50 L -34.64 -20.00 L -30.31 -17.50 L -25.98 -15.00 L -21.65 -12.50 L -17.32 -10.00 L -12.99 -7.50 L -8.66 -5.00 L -4.33 -2.50 L 0.00 0.00" stroke-width="1" stroke="black" fill="none"/>
</svg>